<svg width="357" height="87" viewBox="0 0 357 87" fill="none" xmlns="http://www.w3.org/2000/svg">
<path d="M0 0H357L324.5 43.5L357 87H0V0Z" fill="#A71F1F"/>
<path d="M73.0029 66.3662C72.1077 66.3662 71.6602 66.0651 71.6602 65.4629C71.6602 64.9909 71.9531 64.7549 72.5391 64.7549L73.7354 64.877C74.7119 64.877 75.3711 64.3317 75.7129 63.2412C75.9896 62.3135 76.1279 60.6533 76.1279 58.2607V41.0244C76.1279 38.6318 76.014 37.0693 75.7861 36.3369C75.5583 35.5882 75.2816 35.0837 74.9561 34.8232C74.6468 34.5465 74.2399 34.4082 73.7354 34.4082L72.5391 34.5059C71.9531 34.5059 71.6602 34.2699 71.6602 33.7979C71.6602 33.1956 72.1077 32.8945 73.0029 32.8945C73.8981 32.8945 74.7445 32.9596 75.542 33.0898C76.3558 33.2201 77.194 33.2852 78.0566 33.2852C78.9355 33.2852 79.7656 33.2201 80.5469 33.0898C81.3444 32.9596 82.1826 32.8945 83.0615 32.8945C83.9567 32.8945 84.4043 33.1956 84.4043 33.7979C84.4043 34.2699 84.1113 34.5059 83.5254 34.5059L82.3535 34.4082C81.3607 34.4082 80.6934 34.9535 80.3516 36.0439C80.0911 36.9066 79.9609 38.5667 79.9609 41.0244V54.8184C79.9609 58.3828 80.0423 61.3369 80.2051 63.6807C81.3932 64.0062 82.7035 64.1689 84.1357 64.1689C85.5843 64.1689 86.8376 64.0876 87.8955 63.9248C88.9697 63.762 89.8975 63.5179 90.6787 63.1924C92.1436 62.5902 93.2829 61.5729 94.0967 60.1406C94.4222 59.5547 94.7477 59.2617 95.0732 59.2617C95.3988 59.2617 95.5615 59.4977 95.5615 59.9697C95.5615 60.165 95.5046 60.4173 95.3906 60.7266C95.2604 61.1497 95.0732 61.7845 94.8291 62.6309C94.585 63.4609 94.3815 64.1038 94.2188 64.5596C94.0723 64.999 93.9014 65.3652 93.7061 65.6582C93.3154 66.2116 92.7702 66.4883 92.0703 66.4883C91.3867 66.4883 90.7357 66.4801 90.1172 66.4639C89.4987 66.4639 88.8477 66.4476 88.1641 66.415C87.4967 66.3988 86.7725 66.3662 85.9912 66.3174C85.21 66.2848 84.3229 66.2441 83.3301 66.1953C82.3372 66.1465 81.4746 66.0977 80.7422 66.0488C80.0098 66.0163 79.2773 66 78.5449 66C77.8288 66 77.2266 66.0163 76.7383 66.0488C76.2663 66.0977 75.835 66.1383 75.4443 66.1709C75.0537 66.2197 74.6712 66.2604 74.2969 66.293C73.9225 66.3418 73.4912 66.3662 73.0029 66.3662ZM115.776 33.6514L116.802 33.5049C117.257 33.5049 117.51 33.8792 117.559 34.6279C117.607 35.3604 117.673 35.9626 117.754 36.4346C117.835 36.9066 117.917 37.3298 117.998 37.7041C118.079 38.0785 118.145 38.3958 118.193 38.6562C118.258 38.9167 118.291 39.1364 118.291 39.3154C118.291 39.4782 118.193 39.641 117.998 39.8037C117.819 39.9502 117.624 40.0234 117.412 40.0234C117.038 40.0234 116.672 39.6247 116.313 38.8271C115.63 37.3135 115.06 36.3369 114.604 35.8975C113.547 34.9535 111.992 34.4814 109.941 34.4814C107.077 34.4814 105.156 35.3359 104.18 37.0449C103.87 37.5983 103.716 38.2738 103.716 39.0713C103.716 39.8688 103.903 40.6175 104.277 41.3174C104.668 42.0173 105.254 42.7253 106.035 43.4414C106.833 44.1413 107.842 44.8981 109.062 45.7119C110.283 46.5257 111.593 47.4128 112.993 48.373C114.393 49.3333 115.483 50.2041 116.265 50.9854C117.046 51.7503 117.681 52.5153 118.169 53.2803C119.097 54.7288 119.561 56.1367 119.561 57.5039C119.561 58.8711 119.365 60.0918 118.975 61.166C118.584 62.224 117.949 63.1517 117.07 63.9492C115.166 65.7233 112.35 66.6104 108.623 66.6104C106.735 66.6104 104.652 66.1953 102.373 65.3652C101.852 65.1862 101.527 64.9827 101.396 64.7549C101.25 64.4782 101.12 63.9574 101.006 63.1924C100.892 62.4274 100.754 61.7357 100.591 61.1172C100.444 60.4987 100.306 59.9453 100.176 59.457L99.834 58.1875C99.7363 57.8132 99.6875 57.5039 99.6875 57.2598C99.6875 56.6738 99.9072 56.3809 100.347 56.3809C100.933 56.3809 101.356 56.8285 101.616 57.7236C102.072 59.3187 102.479 60.3522 102.837 60.8242C104.22 62.6471 105.824 63.8353 107.646 64.3887C108.184 64.5514 108.9 64.6328 109.795 64.6328C110.706 64.6328 111.593 64.5026 112.456 64.2422C113.335 63.9655 114.059 63.5993 114.629 63.1436C115.703 62.2646 116.24 61.1986 116.24 59.9453C116.24 58.6758 115.833 57.5365 115.02 56.5273C114.222 55.502 113.254 54.6149 112.114 53.8662C110.991 53.1012 110.145 52.5397 109.575 52.1816C109.022 51.8236 108.501 51.4818 108.013 51.1562C103.895 48.4056 101.462 45.6712 100.713 42.9531C100.518 42.237 100.42 41.415 100.42 40.4873C100.42 39.5596 100.648 38.6074 101.104 37.6309C101.559 36.6543 102.21 35.7998 103.057 35.0674C104.928 33.4723 107.345 32.6748 110.308 32.6748C111.659 32.6748 112.741 32.8132 113.555 33.0898C114.694 33.4642 115.435 33.6514 115.776 33.6514ZM124.834 66.3662C123.809 66.3662 123.296 66.0814 123.296 65.5117C123.296 64.9258 123.638 64.6328 124.321 64.6328C125.347 64.6328 126.071 64.4782 126.494 64.1689C127.324 63.5667 127.812 62.5332 127.959 61.0684C127.992 60.7266 128.024 60.2057 128.057 59.5059C128.105 58.806 128.154 57.9922 128.203 57.0645C128.268 56.1204 128.325 55.0869 128.374 53.9639C128.423 52.8245 128.472 51.6608 128.521 50.4727C128.586 49.2682 128.643 48.0638 128.691 46.8594C128.74 45.6549 128.781 44.5075 128.813 43.417C128.895 40.6989 128.936 38.9818 128.936 38.2656C128.936 37.5495 128.879 36.988 128.765 36.5811C128.667 36.1742 128.521 35.8405 128.325 35.5801C127.967 35.1243 127.389 34.8395 126.592 34.7256C125.192 34.5303 124.492 34.2292 124.492 33.8223C124.492 33.5456 124.59 33.3258 124.785 33.1631C124.997 32.984 125.265 32.8945 125.591 32.8945L129.424 33.2363L131.572 33.1387C131.963 33.1387 132.288 33.3096 132.549 33.6514C132.809 33.9769 133.102 34.4652 133.428 35.1162L145.244 59.6035C145.521 58.9688 145.887 58.1305 146.343 57.0889C146.799 56.0472 147.295 54.8916 147.832 53.6221C148.385 52.3525 148.971 51.0098 149.59 49.5938C150.208 48.1777 150.819 46.7699 151.421 45.3701C152.023 43.9704 152.601 42.6276 153.154 41.3418C153.708 40.056 154.196 38.9167 154.619 37.9238C155.042 36.9147 155.392 36.0928 155.669 35.458C155.946 34.8232 156.133 34.3757 156.23 34.1152C156.344 33.8385 156.556 33.5863 156.865 33.3584C157.174 33.1305 157.541 33.0166 157.964 33.0166L160.259 33.1143L163.188 32.8945C164.409 32.8945 165.02 33.1956 165.02 33.7979C165.02 34.0908 164.751 34.2943 164.214 34.4082C163.677 34.5059 163.221 34.5954 162.847 34.6768C162.472 34.7581 162.122 34.8802 161.797 35.043C161.048 35.4499 160.674 36.1253 160.674 37.0693L161.919 60.9707C162.049 63.0703 162.839 64.2585 164.287 64.5352C164.694 64.6003 165.093 64.6328 165.483 64.6328C166.183 64.6328 166.533 64.9258 166.533 65.5117C166.533 66.0814 166.021 66.3662 164.995 66.3662C164.588 66.3662 164.238 66.3418 163.945 66.293C163.652 66.2604 163.359 66.2279 163.066 66.1953C162.188 66.0651 161.39 66 160.674 66L155.474 66.3662C154.416 66.3662 153.887 66.0651 153.887 65.4629C153.887 64.9583 154.269 64.7061 155.034 64.7061C155.799 64.7061 156.353 64.6491 156.694 64.5352C157.052 64.4049 157.313 64.2096 157.476 63.9492C157.703 63.5586 157.817 62.639 157.817 61.1904V58.8955C157.817 57.7887 157.736 55.5426 157.573 52.1572C157.41 48.7718 157.297 46.3548 157.231 44.9062C157.101 41.8464 156.979 39.527 156.865 37.9482L145.317 64.4131C144.894 65.3734 144.512 65.8535 144.17 65.8535C143.942 65.8535 143.747 65.7396 143.584 65.5117C143.438 65.2676 143.234 64.8851 142.974 64.3643L131.157 40.0234C130.539 48.3079 130.229 55.8844 130.229 62.7529C130.229 64.0876 131.312 64.7549 133.477 64.7549C134.062 64.7549 134.355 64.9909 134.355 65.4629C134.355 66.0651 133.826 66.3662 132.769 66.3662L128.813 66C127.983 66 127.202 66.057 126.47 66.1709C125.737 66.3011 125.192 66.3662 124.834 66.3662ZM157.598 36.2637L157.622 36.2393L157.598 36.2637Z" fill="white"/>
<path d="M190.538 41.8568H221.175V63.3922C221.175 64.5809 220.436 65.6442 219.322 66.0588C210.636 69.2909 201.077 69.2909 192.391 66.0588C191.276 65.6442 190.538 64.5809 190.538 63.3922V41.8568Z" fill="#D9D9D9"/>
<path d="M206.501 29.5598C206.77 29.4507 207.074 29.4643 207.332 29.597L232.191 42.3533C232.929 42.7323 232.911 43.7943 232.16 44.1478L204.202 57.3046C203.9 57.4465 203.547 57.4288 203.261 57.2572L178.72 42.5325C178.012 42.108 178.094 41.0576 178.859 40.748L206.501 29.5598Z" fill="white"/>
<path d="M186.975 56.8193H189.113L189.825 62.8755L189.113 63.2318L188.4 58.6005L188.044 63.2318L185.194 62.5193L186.975 56.8193Z" fill="#D9D9D9"/>
<path d="M187.509 56.1165L188.836 45.9895L199.183 42.0677L199.8 42.5692L199.8 43.2817L189.816 46.936L188.52 56.0859L187.509 56.1165Z" fill="#D9D9D9"/>
<circle cx="188.4" cy="55.3943" r="2.1375" fill="white"/>
</svg>
