<svg width="342" height="247" viewBox="0 0 342 247" fill="none" xmlns="http://www.w3.org/2000/svg">
<path d="M10.4502 203.274C7.33496 203.274 5.77734 202.227 5.77734 200.131C5.77734 198.488 6.79688 197.667 8.83594 197.667L12.999 198.092C16.3975 198.092 18.6914 196.194 19.8809 192.399C20.8438 189.171 21.3252 183.394 21.3252 175.067V115.085C21.3252 106.759 20.9287 101.321 20.1357 98.7725C19.3428 96.167 18.3799 94.4111 17.2471 93.5049C16.1709 92.542 14.7549 92.0605 12.999 92.0605L8.83594 92.4004C6.79688 92.4004 5.77734 91.5791 5.77734 89.9365C5.77734 87.8408 7.33496 86.793 10.4502 86.793C13.5654 86.793 16.5107 87.0195 19.2861 87.4727C22.1182 87.9258 25.0352 88.1523 28.0371 88.1523C31.0957 88.1523 33.9844 87.9258 36.7031 87.4727C39.4785 87.0195 42.3955 86.793 45.4541 86.793C48.5693 86.793 50.127 87.8408 50.127 89.9365C50.127 91.5791 49.1074 92.4004 47.0684 92.4004L42.9902 92.0605C39.5352 92.0605 37.2129 93.958 36.0234 97.7529C35.1172 100.755 34.6641 106.532 34.6641 115.085V163.088C34.6641 175.492 34.9473 185.772 35.5137 193.929C39.6484 195.062 44.208 195.628 49.1924 195.628C54.2334 195.628 58.5947 195.345 62.2764 194.778C66.0146 194.212 69.2432 193.362 71.9619 192.229C77.0596 190.134 81.0244 186.594 83.8564 181.609C84.9893 179.57 86.1221 178.551 87.2549 178.551C88.3877 178.551 88.9541 179.372 88.9541 181.015C88.9541 181.694 88.7559 182.572 88.3594 183.648C87.9062 185.121 87.2549 187.33 86.4053 190.275C85.5557 193.164 84.8477 195.401 84.2812 196.987C83.7715 198.517 83.1768 199.791 82.4971 200.811C81.1377 202.736 79.2402 203.699 76.8047 203.699C74.4258 203.699 72.1602 203.671 70.0078 203.614C67.8555 203.614 65.5898 203.558 63.2109 203.444C60.8887 203.388 58.3682 203.274 55.6494 203.104C52.9307 202.991 49.8438 202.85 46.3887 202.68C42.9336 202.51 39.9316 202.34 37.3828 202.17C34.834 202.057 32.2852 202 29.7363 202C27.2441 202 25.1484 202.057 23.4492 202.17C21.8066 202.34 20.3057 202.481 18.9463 202.595C17.5869 202.765 16.2559 202.906 14.9531 203.02C13.6504 203.189 12.1494 203.274 10.4502 203.274ZM159.302 89.4268L162.87 88.917C164.456 88.917 165.334 90.2197 165.504 92.8252C165.674 95.374 165.9 97.4697 166.184 99.1123C166.467 100.755 166.75 102.228 167.033 103.53C167.316 104.833 167.543 105.938 167.713 106.844C167.939 107.75 168.053 108.515 168.053 109.138C168.053 109.704 167.713 110.271 167.033 110.837C166.41 111.347 165.73 111.602 164.994 111.602C163.691 111.602 162.417 110.214 161.171 107.438C158.792 102.171 156.81 98.7725 155.224 97.2432C151.542 93.958 146.133 92.3154 138.996 92.3154C129.027 92.3154 122.344 95.2891 118.945 101.236C117.869 103.162 117.331 105.513 117.331 108.288C117.331 111.063 117.982 113.669 119.285 116.104C120.645 118.54 122.684 121.004 125.402 123.496C128.178 125.932 131.689 128.565 135.938 131.397C140.186 134.229 144.745 137.316 149.616 140.658C154.487 144 158.282 147.03 161.001 149.749C163.72 152.411 165.929 155.073 167.628 157.735C170.856 162.776 172.471 167.676 172.471 172.434C172.471 177.191 171.791 181.439 170.432 185.178C169.072 188.859 166.863 192.088 163.805 194.863C157.178 201.037 147.379 204.124 134.408 204.124C127.838 204.124 120.588 202.68 112.658 199.791C110.846 199.168 109.713 198.46 109.26 197.667C108.75 196.704 108.297 194.892 107.9 192.229C107.504 189.567 107.022 187.16 106.456 185.008C105.946 182.855 105.465 180.93 105.012 179.23L103.822 174.812C103.482 173.51 103.312 172.434 103.312 171.584C103.312 169.545 104.077 168.525 105.606 168.525C107.646 168.525 109.118 170.083 110.024 173.198C111.61 178.749 113.026 182.346 114.272 183.988C119.087 190.332 124.666 194.467 131.01 196.393C132.879 196.959 135.371 197.242 138.486 197.242C141.658 197.242 144.745 196.789 147.747 195.883C150.806 194.92 153.326 193.646 155.309 192.06C159.047 189.001 160.916 185.291 160.916 180.93C160.916 176.512 159.5 172.547 156.668 169.035C153.893 165.467 150.522 162.38 146.558 159.774C142.649 157.112 139.704 155.158 137.722 153.912C135.796 152.666 133.983 151.477 132.284 150.344C117.954 140.771 109.486 131.256 106.881 121.797C106.201 119.305 105.861 116.444 105.861 113.216C105.861 109.987 106.654 106.674 108.24 103.275C109.826 99.877 112.092 96.9033 115.037 94.3545C121.551 88.8037 129.962 86.0283 140.271 86.0283C144.972 86.0283 148.738 86.5098 151.57 87.4727C155.535 88.7754 158.112 89.4268 159.302 89.4268ZM190.822 203.274C187.254 203.274 185.47 202.283 185.47 200.301C185.47 198.262 186.659 197.242 189.038 197.242C192.606 197.242 195.127 196.704 196.6 195.628C199.488 193.532 201.188 189.936 201.697 184.838C201.811 183.648 201.924 181.836 202.037 179.4C202.207 176.965 202.377 174.133 202.547 170.904C202.773 167.619 202.972 164.022 203.142 160.114C203.312 156.149 203.481 152.1 203.651 147.965C203.878 143.773 204.076 139.582 204.246 135.391C204.416 131.199 204.558 127.206 204.671 123.411C204.954 113.952 205.096 107.977 205.096 105.484C205.096 102.992 204.897 101.038 204.501 99.6221C204.161 98.2061 203.651 97.0449 202.972 96.1387C201.726 94.5527 199.715 93.5615 196.939 93.165C192.068 92.4854 189.633 91.4375 189.633 90.0215C189.633 89.0586 189.973 88.2939 190.652 87.7275C191.389 87.1045 192.323 86.793 193.456 86.793L206.795 87.9824L214.271 87.6426C215.631 87.6426 216.764 88.2373 217.67 89.4268C218.576 90.5596 219.596 92.2588 220.729 94.5244L261.85 179.74C262.812 177.531 264.087 174.614 265.673 170.989C267.259 167.364 268.986 163.343 270.855 158.925C272.781 154.507 274.82 149.834 276.973 144.906C279.125 139.979 281.249 135.079 283.345 130.208C285.44 125.337 287.451 120.664 289.377 116.189C291.303 111.715 293.002 107.75 294.475 104.295C295.947 100.783 297.165 97.9229 298.128 95.7139C299.091 93.5049 299.742 91.9473 300.082 91.041C300.479 90.0781 301.215 89.2002 302.291 88.4072C303.367 87.6143 304.642 87.2178 306.114 87.2178L314.101 87.5576L324.296 86.793C328.544 86.793 330.668 87.8408 330.668 89.9365C330.668 90.9561 329.733 91.6641 327.864 92.0605C325.995 92.4004 324.409 92.7119 323.106 92.9951C321.804 93.2783 320.586 93.7031 319.453 94.2695C316.848 95.6855 315.545 98.0361 315.545 101.321L319.878 184.498C320.331 191.805 323.078 195.939 328.119 196.902C329.535 197.129 330.923 197.242 332.282 197.242C334.718 197.242 335.936 198.262 335.936 200.301C335.936 202.283 334.151 203.274 330.583 203.274C329.167 203.274 327.949 203.189 326.93 203.02C325.91 202.906 324.891 202.793 323.871 202.68C320.812 202.227 318.037 202 315.545 202L297.448 203.274C293.767 203.274 291.926 202.227 291.926 200.131C291.926 198.375 293.257 197.497 295.919 197.497C298.581 197.497 300.507 197.299 301.696 196.902C302.942 196.449 303.849 195.77 304.415 194.863C305.208 193.504 305.604 190.304 305.604 185.263V177.276C305.604 173.425 305.321 165.608 304.755 153.827C304.188 142.046 303.792 133.635 303.565 128.594C303.112 117.945 302.688 109.874 302.291 104.38L262.104 196.478C260.632 199.819 259.301 201.49 258.111 201.49C257.318 201.49 256.639 201.094 256.072 200.301C255.562 199.451 254.854 198.12 253.948 196.308L212.827 111.602C210.675 140.432 209.599 166.798 209.599 190.7C209.599 195.345 213.365 197.667 220.898 197.667C222.938 197.667 223.957 198.488 223.957 200.131C223.957 202.227 222.116 203.274 218.435 203.274L204.671 202C201.782 202 199.063 202.198 196.515 202.595C193.966 203.048 192.068 203.274 190.822 203.274ZM304.84 98.5176L304.925 98.4326L304.84 98.5176Z" fill="white"/>
<path d="M240 39.0972H283V69.3223C283 70.9906 281.963 72.4831 280.399 73.0649C268.208 77.6011 254.792 77.6011 242.601 73.0649C241.037 72.4831 240 70.9906 240 69.3223V39.0972Z" fill="#D9D9D9"/>
<path d="M261.727 22.1125C262.535 21.7853 263.446 21.8261 264.222 22.2243L295.572 38.3116C297.788 39.4487 297.733 42.6347 295.479 43.6952L259.948 60.4156C259.043 60.8416 257.985 60.7884 257.127 60.2737L226.16 41.693C224.037 40.4195 224.283 37.2684 226.577 36.3397L261.727 22.1125Z" fill="white"/>
<path d="M235 60.0972H238L239 68.5972L238 69.0972L237 62.5972L236.5 69.0972L232.5 68.0972L235 60.0972Z" fill="#D9D9D9"/>
<path d="M235.75 59.111L237.612 44.8977L252.134 39.3934L253 40.0973L253 41.0973L238.988 46.226L237.168 59.068L235.75 59.111Z" fill="#D9D9D9"/>
<circle cx="237" cy="58.0972" r="3" fill="white"/>
</svg>
