<svg width="31" height="44" viewBox="0 0 31 44" fill="none" xmlns="http://www.w3.org/2000/svg">
<path d="M23.0813 21.8325C23.0813 19.49 22.1508 17.2434 20.4944 15.587C18.8379 13.9306 16.5913 13 14.2488 13C11.9063 13 9.65968 13.9306 8.00326 15.587C6.34684 17.2434 5.41627 19.49 5.41627 21.8325C5.41627 32.1372 1 35.0813 1 35.0813H27.4976C27.4976 35.0813 23.0813 32.1372 23.0813 21.8325Z" stroke="#4D4D4D" stroke-width="2" stroke-linecap="round" stroke-linejoin="round"/>
<path d="M16.7955 40.9697C16.5367 41.4159 16.1652 41.7862 15.7183 42.0436C15.2713 42.3011 14.7646 42.4366 14.2488 42.4366C13.733 42.4366 13.2263 42.3011 12.7793 42.0436C12.3324 41.7862 11.9609 41.4159 11.7021 40.9697" stroke="#4D4D4D" stroke-width="2" stroke-linecap="round" stroke-linejoin="round"/>
<circle cx="22.5" cy="13.5" r="8.5" fill="white"/>
<path d="M16.76 15.56V14.16L23.92 5H26.08L18.98 14.16L17.96 13.84H29.14V15.56H16.76ZM24.54 19V15.56L24.6 13.84V10.8H26.48V19H24.54Z" fill="#A71F1F"/>
</svg>
